<?xml version="1.0" standalone="no"?>
<!DOCTYPE svg PUBLIC "-//W3C//DTD SVG 20010904//EN"
 "http://www.w3.org/TR/2001/REC-SVG-20010904/DTD/svg10.dtd">
<svg version="1.0" xmlns="http://www.w3.org/2000/svg"
 width="260.000000pt" height="260.000000pt" viewBox="0 0 260.000000 260.000000"
 preserveAspectRatio="xMidYMid meet">
<metadata>
Created by potrace 1.11, written by Peter Selinger 2001-2013
</metadata>
<g transform="translate(0.000000,260.000000) scale(0.100000,-0.100000)"
fill="#000000" stroke="none">
<path d="M1460 2571 c0 -17 2 -31 4 -31 8 0 13 51 5 56 -5 3 -9 -9 -9 -25z"/>
<path d="M1450 2468 c-27 -118 -117 -270 -213 -360 -135 -128 -316 -200 -507
-202 -149 -1 -238 18 -355 76 -68 34 -156 94 -168 114 -10 17 -34 18 -39 2 -3
-7 10 -33 28 -58 39 -56 76 -129 98 -196 29 -90 37 -141 38 -244 0 -204 -87
-399 -243 -543 l-69 -65 20 -54 c106 -269 324 -510 591 -652 93 -50 254 -106
364 -127 75 -14 343 -19 410 -7 86 16 102 19 155 34 355 99 656 349 804 669
21 44 41 87 46 96 5 9 23 74 41 145 30 118 33 143 34 284 0 206 -17 305 -81
471 l-26 65 -61 -9 c-278 -40 -576 95 -736 335 -42 62 -97 185 -106 238 -9 49
-11 48 -25 -12z"/>
</g>
</svg>
